<?xml version="1.0" standalone="no"?>
<!DOCTYPE svg PUBLIC "-//W3C//DTD SVG 20010904//EN"
 "http://www.w3.org/TR/2001/REC-SVG-20010904/DTD/svg10.dtd">
<svg version="1.0" xmlns="http://www.w3.org/2000/svg"
 width="214.000000pt" height="214.000000pt" viewBox="0 0 214.000000 214.000000"
 preserveAspectRatio="xMidYMid meet">
<metadata>
Created by potrace 1.11, written by Peter Selinger 2001-2013
</metadata>
<g transform="translate(0.000000,214.000000) scale(0.100000,-0.100000)"
fill="#000000" stroke="none">
<path d="M1333 1975 c0 -8 4 -12 9 -9 5 3 6 10 3 15 -9 13 -12 11 -12 -6z"/>
<path d="M1153 1965 c0 -8 4 -12 9 -9 5 3 6 10 3 15 -9 13 -12 11 -12 -6z"/>
<path d="M1059 1963 c-1 -5 -1 -11 0 -15 0 -5 -9 -9 -21 -9 -13 -1 -30 -2 -38
-3 -8 -1 -23 2 -32 7 -11 5 -18 4 -18 -3 0 -6 -4 -8 -10 -5 -5 3 -10 -1 -10
-9 0 -9 5 -16 11 -16 5 0 8 -4 5 -9 -3 -4 2 -17 10 -27 9 -10 13 -12 9 -4 -4
8 1 6 10 -5 9 -11 14 -28 11 -38 -4 -16 -2 -16 12 -5 14 11 15 10 9 -5 -4 -10
-3 -16 2 -13 5 3 14 -1 21 -9 10 -12 7 -13 -14 -9 -14 2 -26 0 -26 -5 0 -6 9
-8 20 -6 28 5 84 -43 70 -60 -8 -10 -8 -15 1 -21 8 -4 9 -3 5 4 -4 7 -2 12 4
12 7 0 14 -9 17 -20 3 -11 9 -17 14 -14 5 3 9 1 9 -5 0 -5 -6 -12 -12 -14 -7
-3 -5 -6 6 -6 23 -1 68 -51 61 -69 -3 -7 -1 -11 3 -8 4 2 14 1 22 -5 13 -7 12
-9 -2 -9 -10 0 -18 -5 -18 -11 0 -5 -4 -8 -8 -5 -5 3 -9 -1 -9 -9 0 -13 3 -13
17 0 9 8 21 15 27 15 11 0 27 -29 25 -42 -1 -4 6 -4 16 -1 9 3 14 3 10 -1 -7
-8 0 -18 37 -59 12 -12 32 -39 46 -59 14 -21 29 -35 32 -31 4 3 7 -1 7 -10 0
-10 5 -17 11 -17 5 0 8 -4 5 -9 -3 -5 1 -11 9 -15 8 -3 15 -13 15 -21 0 -9 3
-14 8 -12 4 2 18 -9 32 -26 14 -17 18 -27 10 -22 -8 5 0 -6 18 -23 20 -19 31
-36 26 -43 -4 -7 -3 -9 3 -6 6 4 19 -5 29 -19 25 -33 98 -113 90 -97 -4 6 -2
14 4 18 6 4 7 11 4 17 -11 17 -10 98 1 98 6 0 7 3 0 8 -12 9 -13 92 -1 92 5 0
3 7 -4 15 -10 12 -10 15 0 15 9 0 9 4 -1 17 -12 14 -12 16 2 11 9 -4 16 -1 16
8 0 7 -4 11 -9 8 -4 -3 -8 1 -9 8 0 7 -2 23 -3 36 -2 14 3 22 13 23 12 0 11 3
-4 9 -11 5 -14 9 -7 9 7 1 10 6 7 11 -4 6 -8 38 -8 70 -2 47 1 60 13 61 10 0
8 3 -5 9 -11 5 -14 9 -7 9 7 1 10 6 7 12 -11 17 -12 69 -2 69 5 0 4 7 -3 15
-10 12 -10 15 0 15 9 0 9 4 -1 17 -12 14 -12 16 2 11 9 -4 16 -1 16 8 0 7 -4
11 -8 9 -4 -3 -9 11 -11 30 -3 25 0 35 12 39 10 2 9 4 -4 5 -20 1 -20 1 0 17
10 8 14 13 8 10 -7 -3 -14 3 -17 14 -3 10 0 21 7 24 8 3 8 5 -1 5 -6 1 -9 10
-6 21 3 12 0 20 -6 20 -7 0 -9 5 -5 12 4 7 3 8 -5 4 -19 -12 -61 -14 -67 -4
-3 5 -12 4 -20 -3 -14 -11 -19 -2 -15 24 1 5 -3 6 -9 2 -6 -3 -8 -10 -5 -15 7
-12 -20 -19 -36 -10 -8 6 -16 4 -21 -3 -5 -8 -8 -6 -8 6 0 9 -4 17 -10 17 -5
0 -6 -8 -3 -17 6 -16 5 -16 -10 -4 -12 9 -17 10 -17 2 0 -7 -5 -9 -10 -6 -16
10 -71 15 -66 6 3 -4 -5 -6 -17 -5 -12 1 -26 3 -30 3 -5 1 -5 7 -2 14 4 6 1 5
-7 -3 -14 -16 -74 -20 -95 -7 -8 5 -13 4 -13 -3 0 -7 -6 -8 -17 -1 -10 5 -26
5 -41 0 -17 -7 -21 -6 -16 4 5 8 2 8 -9 -2 -17 -13 -23 -6 -18 22 0 4 -1 7 -4
7 -3 0 -6 -3 -6 -7z"/>
<path d="M1230 1960 c-13 -8 -12 -10 3 -10 9 0 17 5 17 10 0 12 -1 12 -20 0z"/>
<path d="M732 1928 c-5 -5 -19 -10 -31 -11 -11 -1 -21 -5 -21 -10 0 -4 -5 -5
-10 -2 -6 4 -7 11 -4 17 4 7 2 8 -4 4 -6 -4 -9 -13 -5 -21 4 -11 1 -13 -13 -8
-12 4 -15 3 -10 -5 5 -8 0 -12 -14 -12 -13 0 -19 -4 -14 -12 5 -8 0 -9 -14 -6
-12 4 -20 2 -17 -2 8 -12 -44 -62 -57 -54 -6 4 -8 -1 -3 -15 4 -12 2 -21 -4
-21 -6 0 -11 -7 -11 -15 0 -8 -5 -15 -12 -15 -6 0 -8 -3 -5 -7 4 -3 -1 -15
-10 -26 -10 -10 -17 -21 -15 -23 8 -13 0 -34 -10 -28 -8 5 -7 0 2 -11 14 -17
13 -18 -3 -12 -13 5 -16 3 -10 -6 11 -18 10 -51 -2 -59 -6 -5 -4 -8 5 -8 13 0
13 -1 0 -10 -13 -9 -13 -11 0 -20 11 -7 11 -10 2 -10 -9 0 -10 -5 -2 -19 7
-14 6 -21 -3 -24 -9 -4 -9 -6 1 -6 17 -1 15 -21 -5 -45 -10 -12 -11 -15 -3 -8
18 16 27 15 27 -3 0 -8 -5 -12 -11 -9 -6 3 -3 -1 6 -9 10 -8 19 -28 21 -46 2
-17 7 -34 12 -39 5 -4 4 0 0 8 -8 13 -7 13 9 0 12 -9 14 -16 7 -18 -7 -2 -4
-11 8 -21 12 -10 18 -21 14 -25 -3 -3 -1 -6 6 -6 8 0 10 -8 6 -22 -4 -14 -3
-18 2 -11 6 9 14 5 28 -15 11 -15 30 -37 42 -49 12 -13 20 -23 17 -23 -3 0 6
-14 20 -31 14 -17 24 -35 21 -40 -4 -5 2 -6 12 -2 15 6 16 4 5 -9 -10 -12 -9
-18 3 -28 9 -7 15 -8 15 -2 0 6 -6 13 -12 15 -8 3 -6 6 5 6 11 1 17 -6 17 -20
0 -11 4 -18 9 -15 5 4 15 -7 22 -23 7 -16 18 -27 24 -23 5 3 2 -6 -8 -21 -18
-28 -18 -28 3 -15 17 11 22 11 30 -2 5 -8 8 -20 5 -27 -2 -7 4 -10 16 -8 15 3
19 -2 19 -22 0 -15 3 -24 6 -20 11 10 42 -26 39 -45 -2 -10 0 -16 5 -13 11 7
69 -54 70 -71 0 -6 10 -16 23 -23 22 -11 22 -11 -3 -6 -23 6 -24 5 -5 -6 11
-6 34 -26 50 -42 17 -17 24 -27 17 -23 -11 7 -12 4 -3 -13 7 -11 14 -21 17
-21 3 0 2 5 -2 12 -5 7 -3 8 5 4 7 -5 10 -15 7 -23 -3 -8 -2 -12 3 -9 5 3 14
-1 21 -9 9 -11 10 -18 1 -29 -16 -19 10 -41 28 -23 9 9 13 7 17 -11 4 -12 11
-19 17 -15 6 4 8 0 4 -11 -4 -10 -3 -15 3 -11 6 4 18 -7 28 -24 9 -17 20 -31
25 -31 4 0 7 -5 7 -11 0 -5 -5 -7 -12 -3 -7 5 -8 3 -4 -5 5 -7 14 -10 22 -7 8
3 14 -1 14 -9 0 -8 5 -15 12 -15 6 0 3 -10 -8 -22 -15 -18 -15 -20 -2 -9 15
11 22 9 49 -18 17 -17 32 -39 33 -49 2 -9 8 -17 15 -17 6 0 15 -4 19 -10 11
-15 47 -42 39 -29 -4 7 2 14 15 17 12 4 25 1 29 -5 4 -6 10 -2 14 11 3 12 10
19 15 16 11 -7 61 23 73 42 4 7 12 13 17 13 13 0 45 33 60 60 6 12 17 19 24
17 8 -3 11 5 10 23 -1 20 2 27 12 23 9 -3 12 2 9 16 -2 11 1 23 6 26 5 4 6 11
3 17 -5 7 -2 8 6 3 10 -6 12 -4 7 8 -4 10 -1 17 6 17 8 0 6 4 -3 10 -8 5 -10
10 -4 10 6 0 10 10 10 22 -1 13 1 33 6 46 5 15 4 22 -5 22 -8 0 -7 4 3 10 8 5
10 10 4 10 -6 0 -11 15 -12 33 -1 38 -6 65 -16 92 -18 45 -19 51 -17 63 1 6
-2 12 -8 12 -5 0 -17 14 -25 31 -13 25 -13 35 -4 48 10 13 10 14 -2 4 -19 -17
-30 -16 -30 2 0 8 -5 15 -11 15 -6 0 -9 7 -6 14 4 11 1 13 -10 9 -11 -4 -14
-2 -9 5 4 7 2 12 -4 12 -6 0 -13 7 -16 15 -4 8 -19 29 -36 47 -16 17 -27 37
-24 45 3 8 2 12 -2 9 -18 -11 -88 77 -76 96 4 6 3 8 -3 5 -12 -8 -66 47 -56
56 4 4 8 18 10 30 2 17 1 19 -6 7 -5 -8 -7 -18 -5 -22 3 -4 1 -8 -5 -8 -5 0
-13 9 -16 20 -4 11 -10 18 -14 16 -4 -3 -13 5 -21 17 -12 20 -12 21 4 8 14
-12 16 -12 10 3 -3 9 -12 16 -19 16 -8 0 -17 9 -20 21 -4 11 -9 18 -12 15 -12
-12 -31 19 -22 36 7 13 6 16 -4 12 -16 -6 -60 43 -51 58 4 7 3 8 -4 4 -19 -11
-14 5 6 21 15 13 15 13 -5 4 -27 -13 -36 -14 -29 -2 3 5 -1 12 -10 15 -9 3
-14 13 -11 21 4 10 1 12 -10 8 -13 -5 -14 -3 -3 18 12 21 11 23 -2 11 -13 -10
-23 -2 -64 53 -27 36 -66 84 -86 108 -34 37 -43 56 -39 79 0 4 -5 5 -13 2 -9
-3 -21 7 -32 25 -10 17 -23 31 -28 31 -6 0 -5 5 2 12 7 7 12 17 12 23 0 5 -4
4 -9 -4 -10 -16 -31 -6 -31 15 0 8 -6 14 -12 15 -7 0 -23 2 -35 3 -12 1 -26
-1 -31 -6z m378 -1406 c0 -13 -12 -22 -22 -16 -10 6 -1 24 13 24 5 0 9 -4 9
-8z"/>
<path d="M870 1850 c6 -11 16 -20 23 -19 9 0 9 2 -1 6 -6 2 -10 8 -7 13 3 4
-2 11 -10 14 -13 4 -14 2 -5 -14z"/>
<path d="M933 1785 c-3 -9 -3 -18 -1 -21 3 -3 8 4 11 16 6 23 -1 27 -10 5z"/>
<path d="M960 1760 c-9 -6 -10 -10 -3 -10 6 0 15 5 18 10 8 12 4 12 -15 0z"/>
<path d="M440 1746 c0 -2 8 -10 18 -17 15 -13 16 -12 3 4 -13 16 -21 21 -21
13z"/>
<path d="M972 1741 c-11 -7 -11 -9 0 -14 9 -3 15 1 15 9 0 8 -1 14 -1 14 -1 0
-7 -4 -14 -9z"/>
<path d="M995 1700 c3 -5 8 -10 11 -10 2 0 4 5 4 10 0 6 -5 10 -11 10 -5 0 -7
-4 -4 -10z"/>
<path d="M1009 1668 c11 -15 41 -15 41 -1 0 3 -6 3 -14 0 -7 -3 -20 0 -27 6
-11 10 -11 9 0 -5z"/>
<path d="M1044 1639 c-3 -6 2 -18 12 -27 17 -16 17 -16 5 0 -7 9 -10 22 -6 28
3 5 4 10 1 10 -3 0 -8 -5 -12 -11z"/>
<path d="M1073 1635 c0 -8 4 -12 9 -9 5 3 6 10 3 15 -9 13 -12 11 -12 -6z"/>
<path d="M1670 1641 c0 -6 4 -13 10 -16 6 -3 7 1 4 9 -7 18 -14 21 -14 7z"/>
<path d="M1147 1607 c-3 -8 3 -14 16 -15 12 0 17 2 12 6 -6 4 -13 11 -16 15
-4 4 -9 2 -12 -6z"/>
<path d="M1199 1513 c-12 -16 -12 -17 2 -6 9 7 20 9 24 5 5 -4 5 -1 1 6 -9 16
-11 15 -27 -5z"/>
<path d="M1670 1481 c0 -6 4 -13 10 -16 6 -3 7 1 4 9 -7 18 -14 21 -14 7z"/>
<path d="M1260 1470 c0 -5 -8 -7 -17 -3 -19 6 -18 5 7 -14 13 -10 16 -8 17 8
1 10 0 19 -3 19 -2 0 -4 -4 -4 -10z"/>
<path d="M1186 1455 c4 -8 11 -15 16 -15 6 0 5 6 -2 15 -7 8 -14 15 -16 15 -2
0 -1 -7 2 -15z"/>
<path d="M1220 1446 c0 -2 8 -10 18 -17 15 -13 16 -12 3 4 -13 16 -21 21 -21
13z"/>
<path d="M1291 1424 c0 -11 3 -14 6 -6 3 7 2 16 -1 19 -3 4 -6 -2 -5 -13z"/>
<path d="M1310 1416 c0 -2 8 -10 18 -17 15 -13 16 -12 3 4 -13 16 -21 21 -21
13z"/>
<path d="M1240 1400 c-8 -5 -10 -10 -5 -10 6 0 17 5 25 10 8 5 11 10 5 10 -5
0 -17 -5 -25 -10z"/>
<path d="M1293 1385 c0 -8 3 -13 5 -10 3 3 12 -1 21 -7 10 -8 9 -4 -3 10 -23
26 -23 26 -23 7z"/>
<path d="M1339 1333 c-13 -16 -12 -17 4 -4 9 7 17 15 17 17 0 8 -8 3 -21 -13z"/>
<path d="M1376 1317 c3 -10 9 -15 12 -12 3 3 0 11 -7 18 -10 9 -11 8 -5 -6z"/>
<path d="M1316 1298 c3 -5 10 -6 15 -3 13 9 11 12 -6 12 -8 0 -12 -4 -9 -9z"/>
<path d="M1392 1287 c-8 -10 -6 -13 7 -13 11 0 17 6 14 13 -3 7 -6 13 -8 13
-1 0 -7 -6 -13 -13z"/>
<path d="M1436 1251 c-3 -5 1 -11 9 -14 9 -4 12 -1 8 9 -6 16 -10 17 -17 5z"/>
<path d="M1355 1240 c-16 -7 -17 -9 -3 -9 9 -1 20 4 23 9 7 11 7 11 -20 0z"/>
<path d="M1393 1233 c0 -9 4 -10 14 -2 7 6 13 12 13 14 0 1 -6 2 -13 2 -8 0
-14 -6 -14 -14z"/>
<path d="M1469 1198 c7 -9 9 -23 5 -30 -6 -10 -4 -11 7 0 11 10 10 15 -6 30
-17 15 -18 15 -6 0z"/>
<path d="M1413 1185 c0 -8 3 -13 5 -10 3 3 15 -3 26 -12 15 -14 18 -14 8 -2
-6 9 -8 20 -4 25 4 5 3 6 -2 2 -5 -4 -14 -3 -21 2 -8 7 -12 5 -12 -5z"/>
<path d="M1501 1174 c0 -11 3 -14 6 -6 3 7 2 16 -1 19 -3 4 -6 -2 -5 -13z"/>
<path d="M576 1146 c3 -9 13 -16 22 -16 8 0 13 1 11 3 -2 1 -12 9 -22 16 -15
12 -17 12 -11 -3z"/>
<path d="M1421 1143 c7 -12 15 -20 18 -17 3 2 -3 12 -13 22 -17 16 -18 16 -5
-5z"/>
<path d="M462 1146 c4 -5 3 -17 -2 -27 -6 -11 -6 -20 -1 -23 10 -7 9 -25 -2
-43 -5 -7 -5 -13 0 -13 10 0 9 -52 -2 -70 -6 -9 -4 -11 6 -5 11 7 12 6 2 -6
-7 -9 -8 -20 -3 -29 5 -8 6 -19 2 -24 -3 -6 -5 -24 -4 -41 1 -20 -1 -26 -7
-17 -7 11 -9 10 -14 -3 -4 -9 -3 -14 1 -11 4 2 14 1 22 -5 13 -7 13 -9 0 -9
-13 0 -13 -1 0 -10 13 -9 13 -10 0 -10 -13 0 -13 -1 0 -10 12 -8 12 -10 1 -10
-9 0 -10 -4 -3 -12 5 -8 6 -22 1 -33 -4 -11 -8 -14 -8 -6 -1 8 -4 11 -8 7 -5
-4 0 -14 10 -21 14 -10 16 -18 9 -32 -5 -10 -8 -27 -5 -38 10 -48 8 -72 -10
-103 -11 -18 -15 -32 -11 -31 5 1 16 1 24 0 13 -1 13 -2 0 -11 -13 -9 -13 -10
0 -10 13 0 13 -1 0 -10 -13 -9 -13 -10 0 -10 12 0 12 -2 1 -9 -8 -5 -9 -11 -3
-15 6 -3 8 -15 5 -27 -4 -16 -8 -17 -14 -7 -7 10 -9 10 -9 0 0 -7 6 -15 14
-18 8 -3 12 -15 9 -32 -5 -36 -6 -45 -3 -57 5 -21 0 -46 -9 -40 -5 3 -13 1
-16 -5 -4 -6 -3 -10 2 -9 23 4 33 -3 30 -23 -1 -15 3 -23 13 -23 8 0 21 -4 29
-9 10 -6 12 -5 7 2 -4 7 -2 12 3 12 6 0 11 -5 11 -11 0 -5 5 -7 12 -3 17 11
78 12 78 1 0 -4 9 -3 20 3 15 8 20 8 20 -1 0 -7 5 -8 13 -3 15 11 38 11 55 0
7 -4 19 -2 27 4 11 10 15 10 15 1 0 -7 5 -9 13 -4 17 11 187 11 194 0 3 -5 10
-3 15 4 7 11 11 11 15 1 2 -6 10 -9 16 -5 17 11 51 10 59 -2 5 -6 8 -5 8 3 0
6 5 12 11 12 5 0 7 -5 3 -11 -4 -8 -1 -8 12 -1 11 5 38 9 61 8 37 -1 42 2 37
17 -3 10 -15 28 -27 40 -12 13 -33 38 -47 55 -14 18 -30 39 -37 46 -7 8 -9 16
-6 20 4 3 -1 6 -9 6 -9 0 -22 14 -30 30 -7 17 -17 30 -21 30 -5 0 -5 5 -2 10
3 6 0 10 -8 10 -7 0 -20 11 -27 25 -7 13 -18 21 -24 18 -6 -4 -5 1 3 11 8 9
10 16 5 15 -21 -4 -28 2 -14 12 12 9 10 10 -8 6 -13 -3 -21 -3 -18 0 3 3 -2
12 -12 20 -10 9 -11 12 -2 7 8 -4 2 5 -13 19 -15 15 -25 32 -22 37 3 5 0 7 -8
5 -17 -7 -42 38 -31 57 6 11 5 11 -8 0 -14 -11 -17 -10 -23 7 -3 12 -12 21
-18 21 -7 0 -6 4 3 10 11 7 11 10 2 10 -8 0 -10 5 -6 13 5 7 0 6 -11 -3 -11
-9 -16 -10 -11 -2 4 6 2 12 -3 12 -6 0 -11 6 -11 14 0 8 -9 18 -20 21 -11 4
-18 10 -15 15 3 5 -3 15 -14 22 -14 8 -17 16 -10 24 7 8 6 15 -2 20 -8 4 -9 3
-5 -4 9 -16 -1 -15 -18 1 -12 10 -12 14 0 27 11 14 10 16 -9 17 -17 2 -19 0
-7 -7 11 -7 11 -10 2 -10 -7 0 -16 8 -19 17 -7 17 -39 53 -45 50 -2 -1 4 4 12
12 13 11 12 12 -7 7 -16 -5 -23 -2 -28 14 -3 11 -11 20 -16 20 -6 0 -7 5 -4
10 3 6 -1 10 -9 10 -8 0 -18 9 -21 20 -3 11 -11 20 -17 20 -6 0 -9 3 -5 6 3 4
1 11 -6 18 -18 16 -53 42 -45 32z"/>
<path d="M1486 1142 c-3 -5 1 -9 9 -9 8 0 12 4 9 9 -3 4 -7 8 -9 8 -2 0 -6 -4
-9 -8z"/>
<path d="M610 1099 c0 -5 5 -7 10 -4 6 3 10 8 10 11 0 2 -4 4 -10 4 -5 0 -10
-5 -10 -11z"/>
<path d="M540 1086 c0 -2 8 -10 18 -17 15 -13 16 -12 3 4 -13 16 -21 21 -21
13z"/>
<path d="M620 1080 c-9 -6 -10 -10 -3 -10 6 0 15 5 18 10 8 12 4 12 -15 0z"/>
<path d="M635 1060 c-3 -5 -1 -10 4 -10 6 0 11 5 11 10 0 6 -2 10 -4 10 -3 0
-8 -4 -11 -10z"/>
<path d="M1508 1033 c7 -3 16 -2 19 1 4 3 -2 6 -13 5 -11 0 -14 -3 -6 -6z"/>
<path d="M590 1018 c0 -4 9 -7 20 -5 29 5 33 13 5 13 -14 0 -25 -4 -25 -8z"/>
<path d="M435 1011 c-3 -5 -2 -12 3 -15 5 -3 9 1 9 9 0 17 -3 19 -12 6z"/>
<path d="M695 990 c3 -4 14 -10 25 -13 11 -3 18 -2 15 3 -3 4 -14 10 -25 13
-11 3 -18 2 -15 -3z"/>
<path d="M672 980 c2 -9 -3 -14 -12 -12 -8 2 -11 0 -7 -4 4 -4 14 -9 21 -10
14 -2 16 20 2 33 -4 4 -6 1 -4 -7z"/>
<path d="M706 962 c-3 -5 1 -9 9 -9 8 0 12 4 9 9 -3 4 -7 8 -9 8 -2 0 -6 -4
-9 -8z"/>
<path d="M766 898 c3 -5 10 -6 15 -3 13 9 11 12 -6 12 -8 0 -12 -4 -9 -9z"/>
<path d="M790 866 c0 -2 7 -7 16 -10 8 -3 12 -2 9 4 -6 10 -25 14 -25 6z"/>
<path d="M720 856 c0 -2 7 -7 16 -10 8 -3 12 -2 9 4 -6 10 -25 14 -25 6z"/>
<path d="M751 827 c2 -1 13 -9 24 -17 19 -14 19 -14 6 3 -7 9 -18 17 -24 17
-6 0 -8 -1 -6 -3z"/>
<path d="M806 818 c4 -5 9 -7 12 -4 3 3 15 -2 26 -11 21 -18 21 -18 3 3 -16
20 -52 30 -41 12z"/>
<path d="M822 784 c10 -10 20 -16 22 -13 3 3 -5 11 -17 18 -21 13 -21 12 -5
-5z"/>
<path d="M866 762 c-3 -5 1 -9 9 -9 8 0 15 4 15 9 0 4 -4 8 -9 8 -6 0 -12 -4
-15 -8z"/>
<path d="M920 730 c6 -11 13 -20 16 -20 2 0 0 9 -6 20 -6 11 -13 20 -16 20 -2
0 0 -9 6 -20z"/>
<path d="M830 730 c0 -5 5 -10 11 -10 5 0 7 5 4 10 -3 6 -8 10 -11 10 -2 0 -4
-4 -4 -10z"/>
<path d="M867 673 c3 -7 9 -13 15 -13 5 0 7 4 4 9 -4 5 0 11 6 14 7 3 3 4 -8
4 -14 -1 -20 -6 -17 -14z"/>
<path d="M913 673 c0 -9 4 -10 14 -2 7 6 13 12 13 14 0 1 -6 2 -13 2 -8 0 -14
-6 -14 -14z"/>
<path d="M910 642 c0 -12 22 -32 35 -32 5 0 2 5 -8 11 -9 6 -15 14 -12 20 4 5
1 9 -4 9 -6 0 -11 -4 -11 -8z"/>
<path d="M994 595 c0 -24 3 -42 5 -39 8 7 9 74 1 79 -3 2 -6 -16 -6 -40z"/>
<path d="M1036 541 c9 -9 34 -9 34 -1 0 5 -9 8 -20 7 -10 -1 -17 -3 -14 -6z"/>
<path d="M1026 516 c6 -15 4 -17 -6 -11 -9 6 -11 4 -5 -4 5 -9 10 -10 18 -2 8
8 7 14 -2 24 -10 10 -11 8 -5 -7z"/>
<path d="M1098 467 c8 -9 11 -20 8 -25 -3 -5 1 -9 8 -9 20 0 15 23 -8 37 -19
12 -20 12 -8 -3z"/>
<path d="M1148 433 c7 -3 16 -2 19 1 4 3 -2 6 -13 5 -11 0 -14 -3 -6 -6z"/>
<path d="M1072 414 c10 -10 20 -16 22 -13 3 3 -5 11 -17 18 -21 13 -21 12 -5
-5z"/>
<path d="M1110 385 c0 -5 5 -17 10 -25 5 -8 10 -10 10 -5 0 6 -5 17 -10 25 -5
8 -10 11 -10 5z"/>
<path d="M1133 336 c-3 -6 -3 -8 2 -4 4 4 13 3 20 -2 8 -7 12 -5 12 3 0 16
-25 18 -34 3z"/>
<path d="M1187 319 c7 -7 15 -10 18 -7 3 3 -2 9 -12 12 -14 6 -15 5 -6 -5z"/>
<path d="M850 196 c0 -2 8 -10 18 -17 15 -13 16 -12 3 4 -13 16 -21 21 -21 13z"/>
<path d="M1033 185 c0 -8 4 -12 9 -9 5 3 6 10 3 15 -9 13 -12 11 -12 -6z"/>
</g>
</svg>
